# Blender v3.0.0 OBJ File: ''
# www.blender.org
mtllib aqwall.mtl
o Cube.001
v 3.079887 4.701401 5.432819
v 3.121604 4.701401 5.506407
v 3.121604 4.701403 -5.506405
v 3.079887 4.701403 -5.432817
v -3.121604 4.701403 -5.506405
v -3.121604 4.701401 5.506407
v -3.079887 4.701401 5.432819
v -3.079887 4.701403 -5.432817
v 3.121604 -0.026273 5.506406
v -3.121604 -0.026273 5.506406
v -3.121604 -0.026271 -5.506406
v 3.121604 -0.026271 -5.506406
v 3.079887 0.147103 5.432818
v -3.079887 0.147103 5.432818
v -3.079887 0.147105 -5.432818
v 3.079887 0.147105 -5.432818
vt 0.626671 0.748330
vt 0.625000 0.750000
vt 0.625000 0.500000
vt 0.626671 0.501671
vt 0.875000 0.500000
vt 0.875000 0.750000
vt 0.873329 0.748330
vt 0.873329 0.501670
vt 0.375000 0.750000
vt 0.625000 1.000000
vt 0.375000 1.000000
vt 0.375000 0.000000
vt 0.625000 0.000000
vt 0.625000 0.250000
vt 0.375000 0.250000
vt 0.125000 0.500000
vt 0.375000 0.500000
vt 0.125000 0.750000
vt 0.375000 0.750000
vt 0.375000 1.000000
vt 0.619094 1.000000
vt 0.619094 0.750000
vt 0.619094 0.000000
vt 0.375000 0.000000
vt 0.375000 0.250000
vt 0.619094 0.250000
vt 0.125000 0.500000
vt 0.125000 0.750000
vt 0.375000 0.500000
vt 0.619094 0.500000
vn 0.0000 1.0000 0.0000
vn 0.0000 -0.0000 1.0000
vn -1.0000 0.0000 0.0000
vn 0.0000 -1.0000 -0.0000
vn 1.0000 -0.0000 0.0000
vn 0.0000 0.0000 -1.0000
usemtl Material.001
s 1
f 1/1/1 2/2/1 3/3/1 4/4/1
f 4/4/1 3/3/1 5/5/1 6/6/1 2/2/1 1/1/1 7/7/1 8/8/1
f 9/9/2 2/2/2 6/10/2 10/11/2
f 10/12/3 6/13/3 5/14/3 11/15/3
f 11/16/4 12/17/4 9/9/4 10/18/4
f 12/17/5 3/3/5 2/2/5 9/9/5
f 11/15/6 5/14/6 3/3/6 12/17/6
f 13/19/6 14/20/6 7/21/6 1/22/6
f 7/23/5 14/24/5 15/25/5 8/26/5
f 15/27/1 14/28/1 13/19/1 16/29/1
f 16/29/3 13/19/3 1/22/3 4/30/3
f 8/26/2 15/25/2 16/29/2 4/30/2
o Plane
v 3.092901 0.000000 5.497005
v -3.092901 0.000000 5.497005
v 3.092901 0.000000 -5.497005
v -3.092901 0.000000 -5.497005
vt 0.000000 0.000000
vt 0.000000 1.000000
vt 1.000000 1.000000
vt 1.000000 0.000000
vn 0.0000 1.0000 0.0000
usemtl None
s off
f 17/31/7 19/32/7 20/33/7 18/34/7
