# Blender v2.93.5 OBJ File: 'akvarko.blend'
# www.blender.org
mtllib piesocek.mtl
o Plane.001
v -3.086098 0.618309 5.424191
v 3.086098 0.618309 5.424191
v -3.086098 0.618309 -5.424191
v 3.086098 0.618309 -5.424191
v -3.086098 0.618309 0.000000
v 0.000000 0.618309 5.424191
v 3.086098 0.618309 0.000000
v 0.000000 0.550428 -5.424191
v 0.000000 0.819129 0.000000
v -3.086098 0.618309 2.712095
v 1.543049 0.478471 5.424191
v 3.086098 0.726756 -2.712095
v -1.543049 0.618309 -5.424191
v -3.086098 0.665130 -2.712095
v -1.543049 0.526657 5.424191
v 3.086098 0.618309 2.712095
v 1.543049 0.618309 -5.424191
v 0.000000 0.597348 -2.712095
v 0.000000 0.819129 2.712095
v -1.543049 0.618309 0.000000
v 1.543049 0.580175 0.000000
v 1.543049 0.478471 2.712095
v -1.543049 0.526657 2.712095
v -1.543049 0.781794 -2.712095
v 1.543049 0.688618 -2.712095
v -3.086098 0.569654 4.068143
v 2.314574 0.554005 5.424191
v 3.086098 0.648931 -4.068143
v -2.314574 0.618309 -5.424191
v -3.086098 0.618309 -1.356048
v -0.771525 0.576163 5.424191
v 3.086098 0.618309 1.356048
v 0.771525 0.587094 -5.424191
v 0.000000 0.492482 -4.068143
v 0.000000 0.991237 1.356048
v -2.314574 0.618309 0.000000
v 0.771525 0.690432 0.000000
v -3.086098 0.618309 1.356048
v 0.771525 0.554005 5.424191
v 3.086098 0.628716 -1.356048
v -0.771525 0.587094 -5.424191
v -3.086098 0.618309 -4.068143
v -2.314574 0.576163 5.424191
v 3.086098 0.544073 4.068143
v 2.314574 0.618309 -5.424191
v 0.000000 0.598065 -1.356048
v 0.000000 0.496052 4.068143
v -0.771525 0.708660 0.000000
v 2.314574 0.600773 0.000000
v 1.543049 0.723436 1.356048
v 1.543049 0.359099 4.068143
v 0.771525 0.640394 2.712095
v 2.314574 0.554005 2.712095
v -1.543049 0.723436 1.356048
v -1.543049 0.448418 4.068143
v -2.314574 0.576163 2.712095
v -0.771525 0.664636 2.712095
v -1.543049 0.671135 -4.068143
v -1.543049 0.706506 -1.356048
v -2.314574 0.761814 -2.712095
v -0.771525 0.732682 -2.712095
v 1.543049 0.612975 -4.068143
v 1.543049 0.578001 -1.356048
v 0.771525 0.604975 -2.712095
v 2.314574 0.724328 -2.712095
v 2.314574 0.622829 -1.356048
v 0.771525 0.556261 -1.356048
v 0.771525 0.507860 -4.068143
v -0.771525 0.658867 -1.356048
v -2.314574 0.658867 -1.356048
v -2.314574 0.658867 -4.068143
v -0.771525 0.469182 4.068143
v -2.314574 0.469182 4.068143
v -2.314574 0.618309 1.356048
v 2.314574 0.390779 4.068143
v 0.771525 0.390779 4.068143
v 0.771525 0.945643 1.356048
v 2.314574 0.618309 1.356048
v -0.771525 0.945643 1.356048
v -0.771525 0.548462 -4.068143
v 2.314574 0.684951 -4.068143
v -3.086098 0.618309 5.359235
v 3.086098 0.618309 5.359235
v 0.000000 0.618309 5.359235
v 1.543049 0.463361 5.359235
v -1.543049 0.516753 5.359235
v -0.771525 0.557566 5.359235
v -2.314574 0.557566 5.359235
v 2.314574 0.525631 5.359235
v 0.771525 0.525631 5.359235
v 2.992983 0.618309 5.424191
v 2.992983 0.618309 -5.424191
v 2.992983 0.618309 0.000000
v 2.992983 0.618309 2.712095
v 2.992983 0.730359 -2.712095
v 2.992983 0.629171 -1.356048
v 2.992983 0.505480 4.068143
v 2.992983 0.618309 1.356048
v 2.992983 0.659931 -4.068143
v 2.992983 0.618309 5.359235
v -2.975247 0.618309 -5.424191
v -2.975247 0.618309 0.000000
v -2.975247 0.618309 2.712095
v -2.975247 0.693081 -2.712095
v -2.975247 0.618309 5.424191
v -2.975247 0.618309 -1.356048
v -2.975247 0.618309 -4.068143
v -2.975247 0.540608 4.068143
v -2.975247 0.618309 1.356048
v -2.975247 0.618309 5.359235
v 3.086098 0.618309 -5.322669
v 0.000000 0.539406 -5.322669
v -1.543049 0.618309 -5.322669
v 1.543049 0.618309 -5.322669
v -3.086098 0.618309 -5.322669
v 0.771525 0.567396 -5.322669
v -2.314574 0.618309 -5.322669
v -0.771525 0.567396 -5.322669
v 2.314574 0.618309 -5.322669
v 2.992983 0.618309 -5.322669
v -2.975247 0.618309 -5.322669
v -3.086632 -0.007204 5.423680
v 3.085565 -0.007204 5.423680
v -3.086632 -0.007204 -5.424702
v 3.085565 -0.007204 -5.424702
v -3.086632 -0.007204 -0.000511
v -0.000533 -0.007204 5.423680
v 3.085565 -0.007204 -0.000511
v -0.000533 -0.075086 -5.424702
v -3.086632 -0.007204 2.711585
v 1.542516 -0.147043 5.423680
v 3.085565 0.101242 -2.712607
v -1.543582 -0.007204 -5.424702
v -3.086632 0.039617 -2.712607
v -1.543582 -0.098857 5.423680
v 3.085565 -0.007204 2.711585
v 1.542516 -0.007204 -5.424702
v -3.086632 -0.055860 4.067632
v 2.314041 -0.071509 5.423680
v 3.085565 0.023417 -4.068655
v -2.315107 -0.007204 -5.424702
v -3.086632 -0.007204 -1.356559
v -0.772058 -0.049351 5.423680
v 3.085565 -0.007204 1.355537
v 0.770991 -0.038420 -5.424702
v -3.086632 -0.007204 1.355537
v 0.770991 -0.071509 5.423680
v 3.085565 0.003202 -1.356559
v -0.772058 -0.038420 -5.424702
v -3.086632 -0.007204 -4.068655
v -2.315107 -0.049351 5.423680
v 3.085565 -0.081440 4.067632
v 2.314041 -0.007204 -5.424702
v -3.086632 -0.007204 5.358724
v 3.085565 -0.007204 5.358724
v 2.992450 -0.007204 5.423680
v 2.992450 -0.007204 -5.424702
v -2.975780 -0.007204 -5.424702
v -2.975780 -0.007204 5.423680
v 3.085565 -0.007204 -5.323180
v -3.086632 -0.007204 -5.323180
vt 0.984914 0.990642
vt 1.000000 0.990642
vt 1.000000 1.000000
vt 0.984914 1.000000
vt 0.375000 0.990642
vt 0.500000 0.990642
vt 0.500000 1.000000
vt 0.375000 1.000000
vt 0.375000 0.375000
vt 0.500000 0.375000
vt 0.500000 0.500000
vt 0.375000 0.500000
vt 0.984914 0.375000
vt 1.000000 0.375000
vt 1.000000 0.500000
vt 0.984914 0.500000
vt 0.625000 0.375000
vt 0.750000 0.375000
vt 0.750000 0.500000
vt 0.625000 0.500000
vt 0.625000 0.125000
vt 0.750000 0.125000
vt 0.750000 0.250000
vt 0.625000 0.250000
vt 0.984914 0.125000
vt 1.000000 0.125000
vt 1.000000 0.250000
vt 0.984914 0.250000
vt 0.125000 0.375000
vt 0.250000 0.375000
vt 0.250000 0.500000
vt 0.125000 0.500000
vt 0.125000 0.125000
vt 0.250000 0.125000
vt 0.250000 0.250000
vt 0.125000 0.250000
vt 0.375000 0.125000
vt 0.500000 0.125000
vt 0.500000 0.250000
vt 0.375000 0.250000
vt 0.125000 0.990642
vt 0.250000 0.990642
vt 0.250000 1.000000
vt 0.125000 1.000000
vt 0.125000 0.625000
vt 0.250000 0.625000
vt 0.250000 0.750000
vt 0.125000 0.750000
vt 0.375000 0.625000
vt 0.500000 0.625000
vt 0.500000 0.750000
vt 0.375000 0.750000
vt 0.625000 0.990642
vt 0.750000 0.990642
vt 0.750000 1.000000
vt 0.625000 1.000000
vt 0.625000 0.625000
vt 0.750000 0.625000
vt 0.750000 0.750000
vt 0.625000 0.750000
vt 0.984914 0.625000
vt 1.000000 0.625000
vt 1.000000 0.750000
vt 0.984914 0.750000
vt 0.875000 0.625000
vt 0.875000 0.750000
vt 0.875000 0.500000
vt 0.625000 0.875000
vt 0.500000 0.875000
vt 0.750000 0.875000
vt 0.017960 0.625000
vt 0.017960 0.750000
vt 0.017960 0.500000
vt 0.017960 0.990642
vt 0.017960 1.000000
vt 0.125000 0.875000
vt 0.017960 0.875000
vt 0.250000 0.875000
vt 0.250000 0.005988
vt 0.375000 0.005988
vt 0.500000 0.005988
vt 0.017960 0.125000
vt 0.017960 0.250000
vt 0.017960 0.005988
vt 0.125000 0.005988
vt 0.017960 0.375000
vt 0.875000 0.125000
vt 0.875000 0.250000
vt 0.750000 0.005988
vt 0.875000 0.005988
vt 0.984914 0.005988
vt 1.000000 0.005988
vt 0.625000 0.005988
vt 0.875000 0.375000
vt 0.375000 0.875000
vt 0.875000 0.990642
vt 0.875000 1.000000
vt 0.875000 0.875000
vt 1.000000 0.875000
vt 0.984914 0.875000
vt 0.625000 0.000000
vt 0.750000 0.000000
vt 0.500000 0.000000
vt 0.984914 0.000000
vt 1.000000 0.000000
vt 0.875000 0.000000
vt 0.125000 0.000000
vt 0.250000 0.000000
vt 0.017960 0.000000
vt 0.375000 0.000000
vt 0.000000 0.000000
vt 0.000000 0.005988
vt 0.000000 0.250000
vt 0.000000 0.375000
vt 0.000000 0.500000
vt 0.000000 0.125000
vt 0.000000 0.750000
vt 0.000000 0.875000
vt 0.000000 0.990642
vt 0.000000 1.000000
vt 0.000000 0.625000
vt 0.000000 0.000000
vt 0.017960 0.000000
vt 0.000000 0.125000
vt 0.000000 0.005988
vt 1.000000 0.000000
vt 1.000000 0.005988
vt 1.000000 0.875000
vt 1.000000 0.990642
vt 0.000000 0.500000
vt 0.000000 0.375000
vt 0.000000 0.250000
vt 0.500000 0.000000
vt 0.625000 0.000000
vt 0.750000 0.000000
vt 0.875000 0.000000
vt 0.984914 0.000000
vt 1.000000 0.500000
vt 1.000000 0.625000
vt 1.000000 0.750000
vt 1.000000 1.000000
vt 0.984914 1.000000
vt 0.500000 1.000000
vt 0.375000 1.000000
vt 0.250000 1.000000
vt 0.000000 1.000000
vt 0.000000 0.990642
vt 0.000000 0.875000
vt 0.000000 0.750000
vt 0.125000 1.000000
vt 0.017960 1.000000
vt 0.125000 0.000000
vt 0.250000 0.000000
vt 0.000000 0.625000
vt 1.000000 0.125000
vt 1.000000 0.250000
vt 0.375000 0.000000
vt 0.875000 1.000000
vt 0.750000 1.000000
vt 1.000000 0.375000
vt 0.625000 1.000000
vn 0.0000 1.0000 0.0000
vn 0.0414 0.9879 0.1495
vn -0.0995 0.9839 -0.1484
vn 0.2085 0.9676 -0.1422
vn 0.1234 0.9833 0.1338
vn -0.2025 0.9770 0.0674
vn -0.0679 0.9969 -0.0386
vn 0.0454 0.9966 0.0681
vn -0.1147 0.9757 0.1866
vn -0.0437 0.9969 0.0655
vn 0.1260 0.9917 0.0267
vn -0.0529 0.9939 0.0964
vn -0.0680 0.9960 0.0585
vn 0.0217 0.9971 0.0732
vn -0.0520 0.9956 0.0779
vn -0.0424 0.9991 0.0073
vn 0.0024 1.0000 0.0078
vn 0.0221 0.9996 0.0177
vn 0.1089 0.9856 -0.1291
vn 0.0572 0.9971 -0.0501
vn -0.0414 0.9879 0.1495
vn -0.0149 0.9971 -0.0743
vn -0.1212 0.9906 -0.0631
vn 0.0625 0.9965 0.0548
vn -0.0277 0.9995 0.0142
vn -0.0320 0.9945 -0.0993
vn -0.0823 0.9945 0.0652
vn -0.0307 0.9994 0.0149
vn -0.0308 0.9984 0.0474
vn -0.0823 0.9945 -0.0652
vn -0.0208 0.9967 -0.0785
vn -0.1018 0.9898 0.0999
vn -0.0398 0.9974 -0.0605
vn -0.0565 0.9951 -0.0812
vn 0.0854 0.9940 0.0677
vn 0.0993 0.9930 -0.0639
vn 0.0398 0.9974 -0.0605
vn 0.0319 0.9994 0.0155
vn -0.0359 0.9955 0.0877
vn -0.0689 0.9922 0.1034
vn -0.0605 0.9939 -0.0920
vn -0.2024 0.9767 -0.0708
vn 0.1772 0.9629 0.2033
vn 0.1266 0.9871 -0.0983
vn 0.0605 0.9939 -0.0920
vn 0.1109 0.9817 -0.1547
vn 0.1417 0.9749 0.1716
vn 0.2370 0.9521 0.1932
vn 0.0546 0.9968 -0.0591
vn 0.0191 0.9934 0.1133
vn -0.1970 0.9727 -0.1227
vn -0.2240 0.9598 0.1691
vn -0.1269 0.9784 0.1635
vn 0.0529 0.9939 0.0964
vn 0.1100 0.9881 -0.1074
vn 0.1224 0.9869 -0.1052
vn -0.0696 0.9967 -0.0423
vn 0.0781 0.9955 -0.0544
vn 0.0844 0.9449 -0.3163
vn 0.0989 0.9722 -0.2123
vn -0.0844 0.9449 -0.3163
vn 0.0571 0.9752 -0.2139
vn 0.0769 0.9870 -0.1413
vn -0.0659 0.9878 -0.1414
vn -0.0571 0.9752 -0.2139
vn -0.1123 0.9708 -0.2120
vn 0.0140 0.9991 -0.0405
vn -0.0473 0.9986 0.0237
vn -0.1504 0.9841 -0.0944
vn -0.0176 0.9998 0.0121
vn -0.0091 0.9972 0.0745
vn -0.1301 0.9864 0.1004
vn -0.0129 0.9999 -0.0065
vn 0.1297 0.9904 -0.0485
vn 0.1298 0.9905 0.0461
vn -0.1250 0.9912 -0.0444
vn -0.1250 0.9912 0.0444
vn 0.0184 0.9989 -0.0431
vn -0.0466 0.9986 -0.0244
vn 0.1118 0.9936 -0.0134
vn -0.0307 0.9994 -0.0162
vn -0.0281 0.9987 0.0424
vn -0.1006 0.9946 0.0257
vn -0.0079 0.9993 -0.0372
vn 0.0543 0.9982 0.0262
vn 0.0589 0.9978 -0.0287
vn 0.0000 -0.0008 1.0000
vn -1.0000 0.0009 -0.0000
vn 1.0000 -0.0009 0.0000
vn -0.0001 -0.0008 1.0000
vn 0.0001 -0.0008 1.0000
vn 1.0000 -0.0009 -0.0001
vn 0.0000 0.0008 -1.0000
usemtl Gravel_Road_vjctbag
s off
f 120/1/1 111/2/1 4/3/1 92/4/1
f 118/5/2 112/6/2 8/7/2 41/8/2
f 79/9/3 35/10/3 9/11/3 48/12/3
f 98/13/1 32/14/1 7/15/1 93/16/1
f 77/17/4 50/18/4 21/19/4 37/20/4
f 76/21/5 51/22/5 22/23/5 52/24/5
f 97/25/6 44/26/6 16/27/6 94/28/6
f 74/29/7 54/30/7 20/31/7 36/32/7
f 73/33/8 55/34/8 23/35/8 56/36/8
f 72/37/9 47/38/9 19/39/9 57/40/9
f 117/41/1 113/42/1 13/43/1 29/44/1
f 70/45/10 59/46/10 24/47/10 60/48/10
f 69/49/11 46/50/11 18/51/11 61/52/11
f 116/53/12 114/54/12 17/55/12 33/56/12
f 67/57/13 63/58/13 25/59/13 64/60/13
f 96/61/14 40/62/14 12/63/14 95/64/14
f 63/58/15 66/65/15 65/66/15 25/59/15
f 21/19/16 49/67/16 66/65/16 63/58/16
f 93/16/17 7/15/17 40/62/17 96/61/17
f 46/50/18 67/57/18 64/60/18 18/51/18
f 9/11/19 37/20/19 67/57/19 46/50/19
f 37/20/20 21/19/20 63/58/20 67/57/20
f 112/6/21 116/53/21 33/56/21 8/7/21
f 18/51/22 64/60/22 68/68/22 34/69/22
f 64/60/23 25/59/23 62/70/23 68/68/23
f 59/46/24 69/49/24 61/52/24 24/47/24
f 20/31/25 48/12/25 69/49/25 59/46/25
f 48/12/26 9/11/26 46/50/26 69/49/26
f 106/71/27 70/45/27 60/48/27 104/72/27
f 102/73/28 36/32/28 70/45/28 106/71/28
f 36/32/29 20/31/29 59/46/29 70/45/29
f 121/74/1 117/41/1 29/44/1 101/75/1
f 104/72/30 60/48/30 71/76/30 107/77/30
f 60/48/31 24/47/31 58/78/31 71/76/31
f 55/34/32 72/37/32 57/40/32 23/35/32
f 86/79/33 87/80/33 72/37/33 55/34/33
f 87/80/34 84/81/34 47/38/34 72/37/34
f 108/82/35 73/33/35 56/36/35 103/83/35
f 110/84/36 88/85/36 73/33/36 108/82/36
f 88/85/37 86/79/37 55/34/37 73/33/37
f 109/86/1 74/29/1 36/32/1 102/73/1
f 103/83/38 56/36/38 74/29/38 109/86/38
f 56/36/39 23/35/39 54/30/39 74/29/39
f 51/22/40 75/87/40 53/88/40 22/23/40
f 85/89/41 89/90/41 75/87/41 51/22/41
f 100/91/42 83/92/42 44/26/42 97/25/42
f 47/38/43 76/21/43 52/24/43 19/39/43
f 84/81/44 90/93/44 76/21/44 47/38/44
f 90/93/45 85/89/45 51/22/45 76/21/45
f 35/10/46 77/17/46 37/20/46 9/11/46
f 19/39/47 52/24/47 77/17/47 35/10/47
f 52/24/48 22/23/48 50/18/48 77/17/48
f 50/18/49 78/94/49 49/67/49 21/19/49
f 22/23/50 53/88/50 78/94/50 50/18/50
f 94/28/1 16/27/1 32/14/1 98/13/1
f 54/30/51 79/9/51 48/12/51 20/31/51
f 23/35/52 57/40/52 79/9/52 54/30/52
f 57/40/53 19/39/53 35/10/53 79/9/53
f 113/42/54 118/5/54 41/8/54 13/43/54
f 24/47/55 61/52/55 80/95/55 58/78/55
f 61/52/56 18/51/56 34/69/56 80/95/56
f 114/54/1 119/96/1 45/97/1 17/55/1
f 25/59/57 65/66/57 81/98/57 62/70/57
f 95/64/58 12/63/58 28/99/58 99/100/58
f 39/101/59 11/102/59 85/89/59 90/93/59
f 6/103/60 39/101/60 90/93/60 84/81/60
f 91/104/1 2/105/1 83/92/1 100/91/1
f 11/102/61 27/106/61 89/90/61 85/89/61
f 43/107/62 15/108/62 86/79/62 88/85/62
f 105/109/63 43/107/63 88/85/63 110/84/63
f 31/110/64 6/103/64 84/81/64 87/80/64
f 15/108/65 31/110/65 87/80/65 86/79/65
f 27/106/66 91/104/66 100/91/66 89/90/66
f 65/66/67 95/64/67 99/100/67 81/98/67
f 53/88/68 94/28/68 98/13/68 78/94/68
f 89/90/69 100/91/69 97/25/69 75/87/69
f 49/67/70 93/16/70 96/61/70 66/65/70
f 66/65/71 96/61/71 95/64/71 65/66/71
f 75/87/72 97/25/72 94/28/72 53/88/72
f 78/94/73 98/13/73 93/16/73 49/67/73
f 119/96/1 120/1/1 92/4/1 45/97/1
f 1/111/1 105/109/1 110/84/1 82/112/1
f 10/113/1 103/83/1 109/86/1 38/114/1
f 38/114/1 109/86/1 102/73/1 5/115/1
f 82/112/74 110/84/74 108/82/74 26/116/74
f 26/116/75 108/82/75 103/83/75 10/113/75
f 14/117/76 104/72/76 107/77/76 42/118/76
f 115/119/1 121/74/1 101/75/1 3/120/1
f 5/115/1 102/73/1 106/71/1 30/121/1
f 30/121/77 106/71/77 104/72/77 14/117/77
f 42/118/1 107/77/1 121/74/1 115/119/1
f 81/98/78 99/100/78 120/1/78 119/96/78
f 62/70/79 81/98/79 119/96/79 114/54/79
f 58/78/80 80/95/80 118/5/80 113/42/80
f 107/77/81 71/76/81 117/41/81 121/74/81
f 34/69/82 68/68/82 116/53/82 112/6/82
f 68/68/83 62/70/83 114/54/83 116/53/83
f 71/76/84 58/78/84 113/42/84 117/41/84
f 80/95/85 34/69/85 112/6/85 118/5/85
f 99/100/86 28/99/86 111/2/86 120/1/86
f 105/109/87 1/111/87 122/122/87 159/123/87
f 82/112/88 26/116/88 138/124/88 154/125/88
f 83/92/89 2/105/89 123/126/89 155/127/89
f 111/2/89 28/99/89 140/128/89 160/129/89
f 38/114/88 5/115/88 126/130/88 146/131/88
f 10/113/88 38/114/88 146/131/88 130/132/88
f 39/101/90 6/103/90 127/133/90 147/134/90
f 11/102/90 39/101/90 147/134/90 131/135/90
f 26/116/88 10/113/88 130/132/88 138/124/88
f 1/111/88 82/112/88 154/125/88 122/122/88
f 91/104/91 27/106/91 139/136/91 156/137/91
f 40/62/89 7/15/89 128/138/89 148/139/89
f 12/63/92 40/62/92 148/139/92 132/140/92
f 27/106/91 11/102/91 131/135/91 139/136/91
f 2/105/87 91/104/87 156/137/87 123/126/87
f 92/4/93 4/3/93 125/141/93 157/142/93
f 41/8/93 8/7/93 129/143/93 149/144/93
f 13/43/93 41/8/93 149/144/93 133/145/93
f 28/99/89 12/63/89 132/140/89 140/128/89
f 115/119/88 3/120/88 124/146/88 161/147/88
f 4/3/89 111/2/89 160/129/89 125/141/89
f 42/118/88 115/119/88 161/147/88 150/148/88
f 14/117/88 42/118/88 150/148/88 134/149/88
f 29/44/93 13/43/93 133/145/93 141/150/93
f 3/120/93 101/75/93 158/151/93 124/146/93
f 43/107/90 105/109/90 159/123/90 151/152/90
f 15/108/90 43/107/90 151/152/90 135/153/90
f 30/121/88 14/117/88 134/149/88 142/154/88
f 5/115/88 30/121/88 142/154/88 126/130/88
f 44/26/89 83/92/89 155/127/89 152/155/89
f 16/27/89 44/26/89 152/155/89 136/156/89
f 31/110/91 15/108/91 135/153/91 143/157/91
f 6/103/87 31/110/87 143/157/87 127/133/87
f 45/97/93 92/4/93 157/142/93 153/158/93
f 17/55/93 45/97/93 153/158/93 137/159/93
f 101/75/93 29/44/93 141/150/93 158/151/93
f 32/14/89 16/27/89 136/156/89 144/160/89
f 7/15/89 32/14/89 144/160/89 128/138/89
f 33/56/93 17/55/93 137/159/93 145/161/93
f 8/7/93 33/56/93 145/161/93 129/143/93
